<svg xmlns="http://www.w3.org/2000/svg" style="display: none;" aria-hidden="true">
  <!-- ══════ ORIGINAL STROKE ICONS (kiosk uses these) ══════ -->
  <symbol id="camera" viewBox="0 0 24 24" fill="none" stroke="currentColor" stroke-width="1.5" stroke-linecap="round" stroke-linejoin="round">
    <path d="M4 7.5h3.2l1.8-2.5h5.8l1.8 2.5H20a2 2 0 0 1 2 2v8a2 2 0 0 1-2 2H4a2 2 0 0 1-2-2v-8a2 2 0 0 1 2-2Z"/>
    <circle cx="12" cy="13.5" r="3.25"/>
  </symbol>

  <symbol id="user" viewBox="0 0 24 24" fill="none" stroke="currentColor" stroke-width="1.5" stroke-linecap="round" stroke-linejoin="round">
    <circle cx="12" cy="8" r="4"/>
    <path d="M4 20c0-3.6 3.6-6 8-6s8 2.4 8 6"/>
  </symbol>

  <symbol id="users" viewBox="0 0 24 24" fill="none" stroke="currentColor" stroke-width="1.5" stroke-linecap="round" stroke-linejoin="round">
    <path d="M16 20v-1.2c0-2.3-2-4.3-4.6-4.3H6.6C4 14.5 2 16.5 2 18.8V20"/>
    <circle cx="9" cy="8" r="3.2"/>
    <path d="M22 20v-1.2c0-1.7-1.1-3.2-2.8-3.9"/>
    <path d="M16.8 4.9a3.1 3.1 0 0 1 0 6.2"/>
  </symbol>

  <symbol id="shield" viewBox="0 0 24 24" fill="none" stroke="currentColor" stroke-width="1.5" stroke-linecap="round" stroke-linejoin="round">
    <path d="M12 3 5 6v5.8c0 4.7 2.8 7.7 7 9.2 4.2-1.5 7-4.5 7-9.2V6l-7-3Z"/>
  </symbol>

  <symbol id="lock" viewBox="0 0 24 24" fill="none" stroke="currentColor" stroke-width="1.5" stroke-linecap="round" stroke-linejoin="round">
    <rect x="4" y="11" width="16" height="10" rx="2"/>
    <path d="M8 11V8a4 4 0 1 1 8 0v3"/>
  </symbol>

  <symbol id="unlock" viewBox="0 0 24 24" fill="none" stroke="currentColor" stroke-width="1.5" stroke-linecap="round" stroke-linejoin="round">
    <rect x="4" y="11" width="16" height="10" rx="2"/>
    <path d="M8 11V8a4 4 0 0 1 7.6-1.8"/>
  </symbol>

  <symbol id="settings" viewBox="0 0 24 24" fill="none" stroke="currentColor" stroke-width="1.5" stroke-linecap="round" stroke-linejoin="round">
    <circle cx="12" cy="12" r="3.2"/>
    <path d="M19.2 12a7.8 7.8 0 0 0-.1-1l2-1.5-2-3.4-2.4.8a8 8 0 0 0-1.7-1L14.6 3h-5.2l-.4 2.9a8 8 0 0 0-1.7 1l-2.4-.8-2 3.4 2 1.5a7.8 7.8 0 0 0 0 2l-2 1.5 2 3.4 2.4-.8a8 8 0 0 0 1.7 1l.4 2.9h5.2l.4-2.9a8 8 0 0 0 1.7-1l2.4.8 2-3.4-2-1.5c.1-.3.1-.7.1-1Z"/>
  </symbol>

  <symbol id="database" viewBox="0 0 24 24" fill="none" stroke="currentColor" stroke-width="1.5" stroke-linecap="round" stroke-linejoin="round">
    <ellipse cx="12" cy="5" rx="8.5" ry="3"/>
    <path d="M3.5 5v6c0 1.7 3.8 3 8.5 3s8.5-1.3 8.5-3V5"/>
    <path d="M3.5 11v6c0 1.7 3.8 3 8.5 3s8.5-1.3 8.5-3v-6"/>
  </symbol>

  <symbol id="check" viewBox="0 0 24 24" fill="none" stroke="currentColor" stroke-width="1.5" stroke-linecap="round" stroke-linejoin="round">
    <path d="m5 12.5 4.2 4.2L19 7"/>
  </symbol>

  <symbol id="x" viewBox="0 0 24 24" fill="none" stroke="currentColor" stroke-width="1.5" stroke-linecap="round" stroke-linejoin="round">
    <path d="M6 6 18 18"/>
    <path d="M18 6 6 18"/>
  </symbol>

  <symbol id="alert-triangle" viewBox="0 0 24 24" fill="none" stroke="currentColor" stroke-width="1.5" stroke-linecap="round" stroke-linejoin="round">
    <path d="M10.8 3.8 2.8 18a1.6 1.6 0 0 0 1.4 2.4h15.6a1.6 1.6 0 0 0 1.4-2.4L13.2 3.8a1.4 1.4 0 0 0-2.4 0Z"/>
    <path d="M12 9v4.8"/>
    <circle cx="12" cy="16.8" r=".8" fill="currentColor" stroke="none"/>
  </symbol>

  <symbol id="clock" viewBox="0 0 24 24" fill="none" stroke="currentColor" stroke-width="1.5" stroke-linecap="round" stroke-linejoin="round">
    <circle cx="12" cy="12" r="9"/>
    <path d="M12 7.5V12l3.2 2"/>
  </symbol>

  <symbol id="sun" viewBox="0 0 24 24" fill="none" stroke="currentColor" stroke-width="1.5" stroke-linecap="round" stroke-linejoin="round">
    <circle cx="12" cy="12" r="4"/>
    <path d="M12 2v2"/><path d="M12 20v2"/><path d="m4.93 4.93 1.41 1.41"/><path d="m17.66 17.66 1.41 1.41"/><path d="M2 12h2"/><path d="M20 12h2"/><path d="m6.34 17.66-1.41 1.41"/><path d="m19.07 4.93-1.41 1.41"/>
  </symbol>

  <symbol id="moon" viewBox="0 0 24 24" fill="none" stroke="currentColor" stroke-width="1.5" stroke-linecap="round" stroke-linejoin="round">
    <path d="M21 12.79A9 9 0 1 1 11.21 3 7 7 0 0 0 21 12.79z"/>
  </symbol>

  <symbol id="maximize" viewBox="0 0 24 24" fill="none" stroke="currentColor" stroke-width="1.5" stroke-linecap="round" stroke-linejoin="round">
    <path d="M8 3H5a2 2 0 0 0-2 2v3"/><path d="M21 8V5a2 2 0 0 0-2-2h-3"/><path d="M3 16v3a2 2 0 0 0 2 2h3"/><path d="M16 21h3a2 2 0 0 0 2-2v-3"/>
  </symbol>

  <symbol id="log-out" viewBox="0 0 24 24" fill="none" stroke="currentColor" stroke-width="1.5" stroke-linecap="round" stroke-linejoin="round">
    <path d="M9 21H5a2 2 0 0 1-2-2V5a2 2 0 0 1 2-2h4"/><polyline points="16 17 21 12 16 7"/><line x1="21" y1="12" x2="9" y2="12"/>
  </symbol>

  <symbol id="trash-2" viewBox="0 0 24 24" fill="none" stroke="currentColor" stroke-width="1.5" stroke-linecap="round" stroke-linejoin="round">
    <polyline points="3 6 5 6 21 6"/><path d="M19 6v14a2 2 0 0 1-2 2H7a2 2 0 0 1-2-2V6m3 0V4a2 2 0 0 1 2-2h4a2 2 0 0 1 2 2v2"/><line x1="10" y1="11" x2="10" y2="17"/><line x1="14" y1="11" x2="14" y2="17"/>
  </symbol>

  <symbol id="loader" viewBox="0 0 24 24" fill="none" stroke="currentColor" stroke-width="1.5" stroke-linecap="round" stroke-linejoin="round">
    <line x1="12" y1="2" x2="12" y2="6"/><line x1="12" y1="18" x2="12" y2="22"/><line x1="4.93" y1="4.93" x2="7.76" y2="7.76"/><line x1="16.24" y1="16.24" x2="19.07" y2="19.07"/><line x1="2" y1="12" x2="6" y2="12"/><line x1="18" y1="12" x2="22" y2="12"/><line x1="4.93" y1="19.07" x2="7.76" y2="16.24"/><line x1="16.24" y1="7.76" x2="19.07" y2="4.93"/>
  </symbol>

  <!-- ══════ FILLED ICONS (admin panel) ══════ -->

  <symbol id="home-filled" viewBox="0 0 24 24" fill="currentColor" stroke="none">
    <path d="M12 3.3 3 10.5V20a1 1 0 0 0 1 1h5v-6h6v6h5a1 1 0 0 0 1-1v-9.5L12 3.3Z"/>
  </symbol>

  <symbol id="users-filled" viewBox="0 0 24 24" fill="currentColor" stroke="none">
    <circle cx="9" cy="7.5" r="3.8"/>
    <path d="M2 19.5c0-3.2 3-5.5 7-5.5s7 2.3 7 5.5a.5.5 0 0 1-.5.5h-13a.5.5 0 0 1-.5-.5Z"/>
    <circle cx="17.5" cy="8.5" r="2.8"/>
    <path d="M22 19.5c0-2.2-1.6-4-4-4.8.7-.4 1.5-.7 2.3-.7 2.3 0 3.7 1.5 3.7 3.5a.5.5 0 0 1-.5.5h-1.5v1.5Z"/>
  </symbol>

  <symbol id="camera-filled" viewBox="0 0 24 24" fill="currentColor" stroke="none">
    <path d="M20 7h-3.2l-1.8-2.4a1 1 0 0 0-.8-.4H9.8a1 1 0 0 0-.8.4L7.2 7H4a2 2 0 0 0-2 2v9a2 2 0 0 0 2 2h16a2 2 0 0 0 2-2V9a2 2 0 0 0-2-2Zm-8 10a4 4 0 1 1 0-8 4 4 0 0 1 0 8Z"/>
  </symbol>

  <symbol id="shield-filled" viewBox="0 0 24 24" fill="currentColor" stroke="none">
    <path d="M12 2.5 4.5 5.8v5.4c0 5.2 3.2 8.5 7.5 10.3 4.3-1.8 7.5-5.1 7.5-10.3V5.8L12 2.5Z"/>
  </symbol>

  <symbol id="settings-filled" viewBox="0 0 24 24" fill="currentColor" stroke="none">
    <path d="M13.8 2h-3.6l-.5 2.4a8 8 0 0 0-1.9 1.1l-2.3-.8-1.8 3.1 1.8 1.6a8 8 0 0 0 0 2.2l-1.8 1.6 1.8 3.1 2.3-.8a8 8 0 0 0 1.9 1.1l.5 2.4h3.6l.5-2.4a8 8 0 0 0 1.9-1.1l2.3.8 1.8-3.1-1.8-1.6a8 8 0 0 0 0-2.2l1.8-1.6-1.8-3.1-2.3.8a8 8 0 0 0-1.9-1.1L13.8 2ZM12 15.5a3.5 3.5 0 1 1 0-7 3.5 3.5 0 0 1 0 7Z"/>
  </symbol>

  <symbol id="contrast-filled" viewBox="0 0 24 24" fill="currentColor" stroke="none">
    <path d="M12 2a10 10 0 1 0 0 20 10 10 0 0 0 0-20Zm0 18V4a8 8 0 0 1 0 16Z"/>
  </symbol>

  <symbol id="logout-filled" viewBox="0 0 24 24" fill="currentColor" stroke="none">
    <path d="M5 3h6a1 1 0 0 1 0 2H5v14h6a1 1 0 0 1 0 2H5a2 2 0 0 1-2-2V5a2 2 0 0 1 2-2Z"/>
    <path d="M16.2 7.3a1 1 0 0 1 1.4 0l4 4a1 1 0 0 1 0 1.4l-4 4a1 1 0 0 1-1.4-1.4l2.3-2.3H10a1 1 0 0 1 0-2h8.5l-2.3-2.3a1 1 0 0 1 0-1.4Z"/>
  </symbol>

  <symbol id="plus-filled" viewBox="0 0 24 24" fill="currentColor" stroke="none">
    <path d="M12 4a1.2 1.2 0 0 0-1.2 1.2v5.6H5.2a1.2 1.2 0 0 0 0 2.4h5.6v5.6a1.2 1.2 0 0 0 2.4 0v-5.6h5.6a1.2 1.2 0 0 0 0-2.4h-5.6V5.2A1.2 1.2 0 0 0 12 4Z"/>
  </symbol>

  <symbol id="search-filled" viewBox="0 0 24 24" fill="currentColor" stroke="none">
    <path d="M10.5 3a7.5 7.5 0 0 1 5.96 12.05l4.74 4.74a1 1 0 0 1-1.4 1.42l-4.75-4.75A7.5 7.5 0 1 1 10.5 3Zm0 2a5.5 5.5 0 1 0 0 11 5.5 5.5 0 0 0 0-11Z"/>
  </symbol>

  <symbol id="check-filled" viewBox="0 0 24 24" fill="currentColor" stroke="none">
    <path d="M12 2a10 10 0 1 0 0 20 10 10 0 0 0 0-20Zm4.7 7.7-5.5 5.5a1 1 0 0 1-1.4 0L7.3 12.7a1 1 0 0 1 1.4-1.4l2 2 4.8-4.8a1 1 0 0 1 1.4 1.4Z"/>
  </symbol>

  <symbol id="sliders-filled" viewBox="0 0 24 24" fill="currentColor" stroke="none">
    <rect x="3" y="5" width="18" height="3" rx="1.5"/>
    <circle cx="8" cy="6.5" r="2.5"/>
    <rect x="3" y="10.5" width="18" height="3" rx="1.5"/>
    <circle cx="16" cy="12" r="2.5"/>
    <rect x="3" y="16" width="18" height="3" rx="1.5"/>
    <circle cx="10" cy="17.5" r="2.5"/>
  </symbol>

  <symbol id="door-filled" viewBox="0 0 24 24" fill="currentColor" stroke="none">
    <path d="M5 2a1 1 0 0 0-1 1v18a1 1 0 0 0 1 1h14a1 1 0 0 0 1-1V3a1 1 0 0 0-1-1H5Zm10 11a1.5 1.5 0 1 1 0-3 1.5 1.5 0 0 1 0 3Z"/>
  </symbol>

  <symbol id="wrench-filled" viewBox="0 0 24 24" fill="currentColor" stroke="none">
    <path d="M14.7 3.3a6 6 0 0 0-7.8 7.2l-4.6 4.6a2 2 0 0 0 0 2.8l1.8 1.8a2 2 0 0 0 2.8 0l4.6-4.6a6 6 0 0 0 7.2-7.8l-3 3-2.1-.7-.7-2.1 3-3Z"/>
  </symbol>

  <symbol id="power-filled" viewBox="0 0 24 24" fill="currentColor" stroke="none">
    <path d="M12 2a1.2 1.2 0 0 0-1.2 1.2v8a1.2 1.2 0 0 0 2.4 0v-8A1.2 1.2 0 0 0 12 2Z"/>
    <path d="M7.2 5.5a1.2 1.2 0 0 0-1.5 1.8 8 8 0 1 0 12.6 0 1.2 1.2 0 0 0-1.5-1.8 5.6 5.6 0 1 1-9.6 0Z"/>
  </symbol>

  <symbol id="list-filled" viewBox="0 0 24 24" fill="currentColor" stroke="none">
    <circle cx="4" cy="6" r="1.5"/><rect x="8" y="5" width="13" height="2" rx="1"/>
    <circle cx="4" cy="12" r="1.5"/><rect x="8" y="11" width="13" height="2" rx="1"/>
    <circle cx="4" cy="18" r="1.5"/><rect x="8" y="17" width="13" height="2" rx="1"/>
  </symbol>

  <symbol id="focus-filled" viewBox="0 0 24 24" fill="currentColor" stroke="none">
    <path d="M3 8V5a2 2 0 0 1 2-2h3a1 1 0 0 1 0 2H5v3a1 1 0 0 1-2 0ZM16 3h3a2 2 0 0 1 2 2v3a1 1 0 0 1-2 0V5h-3a1 1 0 0 1 0-2ZM4 16a1 1 0 0 1 1-1 1 1 0 0 1 1 1v3h3a1 1 0 0 1 0 2H5a2 2 0 0 1-2-2v-3ZM19 15a1 1 0 0 1 1 1v3a2 2 0 0 1-2 2h-3a1 1 0 0 1 0-2h3v-3a1 1 0 0 1 1-1Z"/>
    <circle cx="12" cy="12" r="3"/>
  </symbol>

  <symbol id="refresh-filled" viewBox="0 0 24 24" fill="currentColor" stroke="none">
    <path d="M12 4a8 8 0 0 1 7.4 5H17a1 1 0 0 0 0 2h5a1 1 0 0 0 1-1V5a1 1 0 0 0-2 0v2a10 10 0 0 0-18.6 3.2 1 1 0 0 0 1.9.6A8 8 0 0 1 12 4Z"/>
    <path d="M12 20a8 8 0 0 1-7.4-5H7a1 1 0 0 0 0-2H2a1 1 0 0 0-1 1v5a1 1 0 0 0 2 0v-2a10 10 0 0 0 18.6-3.2 1 1 0 0 0-1.9-.6A8 8 0 0 1 12 20Z"/>
  </symbol>

  <symbol id="menu-filled" viewBox="0 0 24 24" fill="currentColor" stroke="none">
    <rect x="3" y="5" width="18" height="2.4" rx="1.2"/>
    <rect x="3" y="10.8" width="18" height="2.4" rx="1.2"/>
    <rect x="3" y="16.6" width="18" height="2.4" rx="1.2"/>
  </symbol>

  <symbol id="activity-filled" viewBox="0 0 24 24" fill="currentColor" stroke="none">
    <path d="M3 13h3.6l2.2-6a1 1 0 0 1 1.9.1L13.4 17l1.8-4H21a1 1 0 0 1 0 2h-4.2l-2.6 5.8a1 1 0 0 1-1.9-.1L9.6 11 8.2 15H3a1 1 0 0 1 0-2Z"/>
  </symbol>

  <symbol id="alert-filled" viewBox="0 0 24 24" fill="currentColor" stroke="none">
    <path d="M10.3 3.2a2 2 0 0 1 3.4 0l8.4 14.4A2 2 0 0 1 20.4 20H3.6a2 2 0 0 1-1.7-3.4L10.3 3.2ZM12 9a1 1 0 0 0-1 1v3a1 1 0 0 0 2 0v-3a1 1 0 0 0-1-1Zm0 7a1.2 1.2 0 1 0 0-2.4 1.2 1.2 0 0 0 0 2.4Z"/>
  </symbol>

  <symbol id="unlock-filled" viewBox="0 0 24 24" fill="currentColor" stroke="none">
    <path d="M8 11V8a4 4 0 0 1 7.6-1.8 1 1 0 1 0 1.8-.8A6 6 0 0 0 6 8v3H5a2 2 0 0 0-2 2v7a2 2 0 0 0 2 2h14a2 2 0 0 0 2-2v-7a2 2 0 0 0-2-2H8Z"/>
  </symbol>

  <symbol id="arrow-right-filled" viewBox="0 0 24 24" fill="currentColor" stroke="none">
    <path d="M4 12a1 1 0 0 1 1-1h11.6l-4.3-4.3a1 1 0 0 1 1.4-1.4l6 6a1 1 0 0 1 0 1.4l-6 6a1 1 0 0 1-1.4-1.4L16.6 13H5a1 1 0 0 1-1-1Z"/>
  </symbol>
</svg>
